<svg aria-hidden="true" style="position:absolute;width:0;height:0"
    xmlns="http://www.w3.org/2000/svg" overflow="hidden">
    <defs>
        <symbol id="icon-logo" viewBox="0 0 45 32">
            <path fill="var(--color1, #9c69e2)" d="M9.143 13.714a9.143 9.143 0 110 18.286 9.143 9.143 0 010-18.286z"/>
            <path fill="var(--color2, #f063b8)" d="M35.657 0A9.143 9.143 0 0144.8 9.143v13.714a9.143 9.143 0 01-18.286 0V9.143A9.143 9.143 0 0135.657 0z"/>
        </symbol>
        <symbol id="icon-icone1" viewBox="0 0 39 32">
            <path fill="var(--color3, #68c9ba)" opacity=".1" d="M3.959 3.731A4.47 4.47 0 018.367 0H34.26a4.47 4.47 0 014.469 4.469V27.53a4.47 4.47 0 01-4.469 4.469H4.502a4.47 4.47 0 01-4.408-5.208L3.959 3.73z"/>
        </symbol>
        <symbol id="icon-icone02" viewBox="0 0 39 32">
            <path fill="var(--color1, #9c69e2)" opacity=".1" d="M3.959 3.731A4.47 4.47 0 018.367 0H34.26a4.47 4.47 0 014.469 4.469V27.53a4.47 4.47 0 01-4.469 4.469H4.502a4.47 4.47 0 01-4.408-5.208L3.959 3.73z"/>
        </symbol>
        <symbol id="icon-icone4" viewBox="0 0 39 32">
            <path fill="var(--color4, #2d9cdb)" opacity=".1" d="M3.959 3.731A4.47 4.47 0 018.367 0H34.26a4.47 4.47 0 014.469 4.469V27.53a4.47 4.47 0 01-4.469 4.469H4.502a4.47 4.47 0 01-4.408-5.208L3.959 3.73z"/>
        </symbol>
        <symbol id="icon-icone03" viewBox="0 0 39 32">
            <path fill="var(--color2, #f063b8)" opacity=".1" d="M3.959 3.731A4.47 4.47 0 018.367 0H34.26a4.47 4.47 0 014.469 4.469V27.53a4.47 4.47 0 01-4.469 4.469H4.502a4.47 4.47 0 01-4.408-5.208L3.959 3.73z"/>
        </symbol>
        <symbol id="icon-f" viewBox="0 0 32 32">
            <path fill="var(--color5, #212353)" opacity=".1" d="M32 16c0 8.837-7.163 16-16 16S0 24.837 0 16 7.163 0 16 0s16 7.163 16 16z"/>
            <path fill="var(--color6, #fff)" d="M16.877 22.712v-6.557h1.814l.24-2.26h-2.054l.003-1.131c0-.589.056-.905.904-.905h1.134v-2.26h-1.814c-2.179 0-2.946 1.096-2.946 2.94v1.357H12.8v2.26h1.358v6.557h2.719z"/>
        </symbol>
        <symbol id="icon-t" viewBox="0 0 32 32">
            <path fill="var(--color5, #212353)" opacity=".1" d="M32 16c0 8.837-7.163 16-16 16S0 24.837 0 16 7.163 0 16 0s16 7.163 16 16z"/>
            <path fill="var(--color6, #fff)" d="M15.942 13.862l-.025-.417c-.076-1.081.591-2.068 1.647-2.451.389-.136 1.047-.153 1.478-.034.169.051.49.221.718.374l.414.281.456-.145a4.78 4.78 0 00.743-.289c.144-.077.27-.119.27-.094 0 .145-.313.638-.574.911-.355.383-.253.417.465.162.431-.145.439-.145.355.017-.051.085-.313.383-.591.655-.473.468-.498.519-.498.911 0 .604-.287 1.864-.574 2.553-.532 1.294-1.673 2.63-2.813 3.302-1.605.945-3.742 1.183-5.542.63-.6-.187-1.63-.664-1.63-.749 0-.026.313-.06.693-.068a4.759 4.759 0 002.264-.63l.456-.272-.524-.179c-.743-.255-1.411-.843-1.58-1.396-.051-.179-.034-.187.439-.187l.49-.009-.414-.196c-.49-.247-.938-.664-1.157-1.089-.161-.306-.363-1.081-.304-1.14.017-.026.194.025.397.094.583.213.659.162.321-.196-.634-.647-.828-1.609-.524-2.519l.144-.409.557.553c1.14 1.115 2.484 1.779 4.021 1.975l.422.051z"/>
        </symbol>
        <symbol id="icon-i" viewBox="0 0 32 32">
            <path fill="var(--color5, #212353)" opacity=".1" d="M32 16c0 8.837-7.163 16-16 16S0 24.837 0 16 7.163 0 16 0s16 7.163 16 16z"/>
            <path fill="var(--color6, #fff)" d="M16.001 13.375c-1.453 0-2.625 1.172-2.625 2.625s1.172 2.625 2.625 2.625 2.625-1.172 2.625-2.625-1.172-2.625-2.625-2.625zm0 4.332a1.708 1.708 0 010-3.414 1.708 1.708 0 010 3.414zm3.345-4.44a.61.61 0 01-.612.612.612.612 0 11.612-.612zm1.738.622c-.039-.82-.226-1.547-.827-2.146-.598-.599-1.325-.786-2.145-.827-.845-.048-3.379-.048-4.224 0-.818.039-1.544.226-2.145.825s-.786 1.325-.827 2.146c-.048.845-.048 3.379 0 4.225.039.82.226 1.547.827 2.146s1.325.786 2.145.827c.845.048 3.379.048 4.224 0 .82-.039 1.547-.226 2.145-.827.599-.599.786-1.325.827-2.146.048-.845.048-3.377 0-4.223zm-1.092 5.129a1.725 1.725 0 01-.973.973c-.674.267-2.273.206-3.018.206s-2.346.059-3.018-.206a1.725 1.725 0 01-.973-.973c-.267-.674-.206-2.274-.206-3.018s-.059-2.347.206-3.018c.178-.448.523-.793.973-.973.674-.267 2.273-.206 3.018-.206s2.346-.059 3.018.206c.448.178.793.523.973.973.267.674.206 2.274.206 3.018s.062 2.347-.206 3.018z"/>
        </symbol>
        <symbol id="icon-Group-64" viewBox="0 0 32 32">
            <path fill="var(--color1, #9c69e2)" opacity=".2" d="M32 16c0 8.837-7.163 16-16 16S0 24.837 0 16 7.163 0 16 0s16 7.163 16 16z"/>
            <path fill="var(--color1, #9c69e2)" d="M8 13.867a5.333 5.333 0 015.333-5.333h5.333a5.333 5.333 0 015.333 5.333V16a5.333 5.333 0 01-5.333 5.333H7.999v-7.467z"/>
            <path fill="var(--color6, #fff)" d="M13.867 14.933a1.067 1.067 0 11-2.135 0 1.067 1.067 0 012.135 0zM17.067 14.933a1.067 1.067 0 11-2.135 0 1.067 1.067 0 012.135 0zM20.267 14.933a1.067 1.067 0 11-2.135 0 1.067 1.067 0 012.135 0z"/>
            <path fill="var(--color1, #9c69e2)" d="M13.333 20.8H8v1.316c0 .829.904 1.341 1.615.915l3.718-2.231z"/>
        </symbol>
        <symbol id="icon-to-right" viewBox="0 0 44 32">
            <path fill="none" stroke="var(--color1, #9c69e2)" stroke-linejoin="round" stroke-linecap="round" stroke-width="4" d="M30 30l12-14L30 2M42 16H2"/>
        </symbol>
    </defs>
</svg>